<svg xmlns="http://www.w3.org/2000/svg" width="27" height="24" viewBox="0 0 27 24">
  <path id="ic_directions_car_24px" d="M26.88,6.515A2.241,2.241,0,0,0,24.75,5H8.25A2.256,2.256,0,0,0,6.12,6.515L3,15.5v12A1.5,1.5,0,0,0,4.5,29H6a1.5,1.5,0,0,0,1.5-1.5V26h18v1.5A1.5,1.5,0,0,0,27,29h1.5A1.5,1.5,0,0,0,30,27.5v-12ZM8.25,21.5a2.25,2.25,0,1,1,2.25-2.25A2.247,2.247,0,0,1,8.25,21.5Zm16.5,0A2.25,2.25,0,1,1,27,19.25,2.247,2.247,0,0,1,24.75,21.5ZM6,14,8.25,7.25h16.5L27,14Z" transform="translate(-3 -5)" fill="#ff9100"/>
</svg>
